<svg width="16" height="16" viewBox="0 0 16 16" fill="none" xmlns="http://www.w3.org/2000/svg">
<path d="M7.849 15.02C7.73 14.918 7.679 14.782 7.679 14.612V8.407H1.508C1.355 8.407 1.236 8.356 1.134 8.254C1.032 8.152 0.981 8.033 0.981 7.88C0.981 7.744 1.032 7.608 1.134 7.506C1.236 7.404 1.355 7.353 1.508 7.353H7.679V1.148C7.679 0.994999 7.73 0.858999 7.849 0.756999C7.951 0.655 8.087 0.586999 8.24 0.586999C8.393 0.586999 8.529 0.655 8.631 0.756999C8.733 0.858999 8.801 0.994999 8.801 1.148V7.353H14.972C15.108 7.353 15.244 7.404 15.346 7.506C15.448 7.608 15.499 7.744 15.499 7.88C15.499 8.033 15.448 8.152 15.346 8.254C15.244 8.356 15.108 8.407 14.972 8.407H8.801V14.612C8.801 14.782 8.733 14.918 8.631 15.02C8.529 15.122 8.393 15.173 8.24 15.173C8.087 15.173 7.951 15.122 7.849 15.02Z" fill="currentColor"/>
</svg>
